HIERARCHY
ROOT Hips
{
	OFFSET 0.00000 0.00000 0.00000
	CHANNELS 6 Xposition Yposition Zposition Yrotation Zrotation Xrotation 
	JOINT Lumbar
	{
		OFFSET 0 0 0
		CHANNELS 3 Zrotation Xrotation Yrotation
		JOINT Neck
		{
			OFFSET 0.00 0.2701 0.00
			CHANNELS 3 Zrotation Xrotation Yrotation
			End Site
			{
				OFFSET 0.00 0.1379 0.00
			}
		}
		JOINT RightShoulder
		{
			OFFSET 0.0119 0.2289 0.1181
			CHANNELS 3 Zrotation Xrotation Yrotation
			JOINT RightElbow
			{
				OFFSET 0.00 -0.1475 0.00
				CHANNELS 2 Zrotation Yrotation
				JOINT RightWrist
				{
					OFFSET 0.00 -0.1605 0.00
					CHANNELS 2 Zrotation Xrotation
					End Site
					{
						OFFSET 0.0040 -0.1068 0.0006
					}
				}
			}
		}
		JOINT LeftShoulder
		{
			OFFSET 0.0119 0.2289 -0.1181
			CHANNELS 3 Zrotation Xrotation Yrotation
			JOINT LeftElbow
			{
				OFFSET 0.00 -0.1475 0.00
				CHANNELS 2 Zrotation Yrotation
				JOINT LeftWrist
				{
					OFFSET 0.00 -0.1605 0.00
					CHANNELS 2 Zrotation Xrotation
					End Site
					{
						OFFSET 0.0040 -0.1068 -0.0006
					}
				}
			}
		}
	}
	JOINT RightHip
	{
		OFFSET 0.0316 -0.0424 0.0458
		CHANNELS 3 Zrotation Xrotation Yrotation
		JOINT RightKnee
		{
			OFFSET 0.00 -0.2438 0.00
			CHANNELS 1 Zrotation
			JOINT RightAnkle
			{
				OFFSET 0.00 -0.2449 0.00
				CHANNELS 3 Zrotation Xrotation Yrotation
				End Site
				{
					OFFSET 0.1237 -0.0542 0.0051
				}
			}
		}
	}
	JOINT LeftHip
	{
		OFFSET 0.0316 -0.0424 -0.0458
		CHANNELS 3 Zrotation Xrotation Yrotation
		JOINT LeftKnee
		{
			OFFSET 0.00 -0.2438 0.00
			CHANNELS 1 Zrotation
			JOINT LeftAnkle
			{
				OFFSET 0.00 -0.2449 0.00
				CHANNELS 3 Zrotation Xrotation Yrotation
				End Site
				{
					OFFSET 0.1237 -0.0542 -0.0051
				}
			}
		}
	}
}
MOTION
Frames: 14
Frame Time: 0.02
0 0.57926 -0 180.24817 0 -5.41319 3.96268 6.22463 -0.03594 -14.94073 3.65511 -2.25047 7.61228 -16.48419 5.92678 11.83937 79.63486 -2.14695 -4.34697 8.50738 11.35525 -8.04798 11.64163 -81.3274 -4.49078 3.56042 -6.25957 6.6193 -14.41098 -4.77822 -13.54306 -2.23249 -9.97956 -8.53472 7.73861 21.16635 1.03032 -8.74278 2.87739 7.4784
-0.00021 0.57922 0.00016 180.18301 0 -5.41527 4.02711 6.24148 -0.07072 -15.05887 3.65594 -2.24594 7.72788 -16.48945 5.92323 11.86484 79.77502 -2.16409 -4.35344 8.60702 11.35022 -8.04941 11.64152 -81.18729 -4.48652 3.57314 -6.2819 6.6045 -14.37479 -4.75705 -13.53264 -2.24377 -9.96032 -8.59032 7.70225 21.8521 1.0811 -8.6836 2.83411 6.84973
-0.00042 0.57917 0.00032 180.11794 0 -5.41736 4.09124 6.25825 -0.10711 -15.17612 3.65629 -2.23967 7.8424 -16.49466 5.91972 11.89008 79.91415 -2.18105 -4.3598 8.70577 11.34514 -8.05083 11.64141 -81.04823 -4.48231 3.58571 -6.30415 6.58978 -14.33718 -4.73594 -13.52238 -2.25456 -9.94247 -8.64588 7.66597 22.53301 1.13192 -8.62491 2.79116 6.22579
-0.00062 0.57913 0.00048 180.0525 0 -5.41964 4.15499 6.27505 -0.15141 -15.29164 3.65445 -2.22502 7.95433 -16.49979 5.91631 11.91463 80.05018 -2.19741 -4.36575 8.80247 11.33969 -8.05195 11.64116 -80.91226 -4.47824 3.59766 -6.32666 6.57511 -14.30187 -4.71428 -13.51229 -2.26506 -9.92193 -8.70239 7.62958 23.20178 1.18452 -8.56797 2.74902 5.61411
-0.00083 0.57908 0.00063 179.98893 0 -5.42105 4.22096 6.2919 -0.15515 -15.41713 3.66383 -2.25313 8.0807 -16.50547 5.91231 11.9428 80.20219 -2.21691 -4.37382 8.91065 11.33605 -8.05434 11.6415 -80.76022 -4.47343 3.61272 -6.34824 6.55998 -14.26422 -4.69487 -13.50087 -2.27894 -9.90613 -8.75455 7.59367 23.93554 1.22904 -8.50218 2.70248 4.9368
-0.00104 0.57904 0.00079 179.92153 0 -5.42424 4.28204 6.30851 -0.24377 -15.52083 3.64973 -2.19186 8.17589 -16.50986 5.90964 11.96328 80.32057 -2.22979 -4.3774 8.994 11.32866 -8.05428 11.64066 -80.64213 -4.47019 3.62128 -6.37148 6.54597 -14.22489 -4.67114 -13.49256 -2.28442 -9.88676 -8.81537 7.55685 24.53066 1.28967 -8.4549 2.66535 4.39947
-0.00127 0.579 0.00097 179.84065 0 -5.43321 4.33196 6.32575 -0.58561 -15.57011 3.56593 -1.86347 8.18899 -16.51156 5.91011 11.96223 80.34333 -2.22366 -4.3681 9.01242 11.30991 -8.04504 11.63581 -80.6196 -4.47131 3.61068 -6.40255 6.53354 -14.23974 -4.63077 -13.49036 -2.27705 -9.79842 -8.90691 7.51564 24.74839 1.40639 -8.46172 2.65379 4.24475
-0.00149 0.57897 0.00114 179.75633 0 -5.44385 4.37659 6.34256 -1.01011 -15.59652 3.45918 -1.4481 8.17002 -16.51178 5.91205 11.95345 80.33262 -2.21097 -4.35433 9.00527 11.28757 -8.03375 11.62991 -80.63109 -4.47404 3.5937 -6.4348 6.52239 -14.2448 -4.58678 -13.49165 -2.25981 -9.71464 -9.0061 7.4738 24.82486 1.53752 -8.48676 2.65181 4.23243
-0.00171 0.57893 0.00132 179.6754 0 -5.45317 4.42214 6.35872 -1.38492 -15.62947 3.36605 -1.08541 8.16293 -16.51209 5.91365 11.9484 80.33913 -2.20176 -4.34294 9.00728 11.26749 -8.025 11.62498 -80.62569 -4.47603 3.58041 -6.46437 6.51171 -14.21262 -4.54757 -13.49311 -2.23965 -9.67046 -9.09739 7.43344 24.96334 1.6545 -8.50145 2.64567 4.1567
-0.00195 0.57889 0.0015 179.58683 0 -5.46484 4.47381 6.37834 -1.81068 -15.67802 3.25964 -0.66767 8.16665 -16.51488 5.91381 11.94247 80.33742 -2.19048 -4.33016 9.01902 11.24467 -8.00954 11.61798 -80.62593 -4.47801 3.56384 -6.50274 6.49697 -14.34525 -4.49548 -13.48759 -2.24854 -9.46112 -9.20706 7.38811 25.11318 1.80302 -8.5246 2.63861 4.07336
-0.00215 0.57886 0.00167 179.51329 0 -5.47205 4.51166 6.39076 -2.15019 -15.68949 3.17521 -0.3434 8.14093 -16.51215 5.91736 11.93648 80.34457 -2.18193 -4.31911 9.00522 11.2268 -8.00747 11.61502 -80.623 -4.48043 3.55253 -6.52338 6.49051 -14.14629 -4.46895 -13.49687 -2.19736 -9.58339 -9.28063 7.35289 25.20308 1.88995 -8.5348 2.63589 4.04239
-0.00223 0.5789 0.00182 179.4827 0 -5.46608 4.51104 6.38255 -2.22945 -15.59683 3.15892 -0.30306 8.03576 -16.49441 5.92944 11.93253 80.38714 -2.18287 -4.31473 8.92042 11.22262 -8.04366 11.62366 -80.59886 -4.48327 3.55783 -6.49208 6.51095 -12.91154 -4.51714 -13.55118 -1.95836 -10.73801 -9.24942 7.34636 25.18744 1.7976 -8.50171 2.64127 4.09598
-0.00227 0.57897 0.00197 179.46726 0 -5.45565 4.49699 6.36726 -2.21941 -15.46899 3.1652 -0.35898 7.9032 -16.4712 5.94484 11.92871 80.43929 -2.18674 -4.31209 8.81204 11.22369 -8.09317 11.63633 -80.57115 -4.48654 3.56854 -6.4434 6.53894 -11.36464 -4.59056 -13.61941 -1.66343 -12.20581 -9.18223 7.34987 25.11289 1.64392 -8.4555 2.6509 4.20075
-0.00233 0.57902 0.00213 179.44447 0 -5.44757 4.49011 6.35575 -2.25152 -15.36204 3.15991 -0.36782 7.78708 -16.45056 5.95919 11.92462 80.48517 -2.18905 -4.30809 8.7189 11.22296 -8.13617 11.64703 -80.54777 -4.48988 3.57646 -6.40448 6.56057 -10.04316 -4.6503 -13.6779 -1.41051 -13.45093 -9.13357 7.34841 25.04702 1.52196 -8.41738 2.6597 4.30024
